<svg xmlns="http://www.w3.org/2000/svg" width="512" height="512" viewBox="0 0 512 512">
<g>
<path d="M 0.00 0.00 L 512.00 0.00 L 512.00 512.00 L 0.00 512.00 ZM 171.50 472.84 C174.21,474.33 181.93,474.26 185.00,472.71 C188.07,471.17 188.79,466.94 186.41,464.55 C183.64,461.78 182.64,455.38 182.59,440.00 C182.52,419.84 183.05,416.93 189.03,404.50 C191.72,398.92 194.65,395.26 203.45,386.50 C213.81,376.19 221.16,371.00 225.39,371.00 C226.32,371.00 228.07,370.36 229.29,369.57 C230.50,368.79 234.61,367.15 238.41,365.94 C244.28,364.06 246.77,363.81 255.07,364.26 C265.93,364.86 266.19,364.74 270.45,357.00 C273.34,351.75 284.27,339.01 290.49,333.64 C293.51,331.04 298.56,327.55 301.71,325.89 C304.87,324.23 308.04,322.38 308.76,321.79 C310.95,319.97 321.40,315.01 323.05,315.00 C323.90,315.00 325.05,314.55 325.60,314.00 C327.04,312.56 337.43,310.00 341.81,310.00 C343.84,310.00 346.95,309.59 348.70,309.08 C353.01,307.85 371.62,309.52 374.48,311.39 C375.94,312.35 378.08,312.66 380.72,312.31 C383.16,311.98 385.01,312.21 385.43,312.89 C385.81,313.50 387.14,314.00 388.40,314.00 C390.43,314.00 397.90,317.19 406.50,321.73 C408.15,322.60 412.52,325.32 416.22,327.77 L 422.94 332.23 L 427.25 329.70 C429.63,328.31 435.53,325.53 440.37,323.53 C467.84,312.15 474.00,307.23 474.00,296.62 C474.00,290.51 469.59,282.34 457.99,266.99 C437.47,239.82 437.55,234.89 458.98,206.16 C476.07,183.26 477.80,175.65 468.19,165.67 C464.37,161.70 454.98,156.82 436.05,148.95 C430.04,146.46 423.46,142.86 420.56,140.50 C411.56,133.17 410.51,126.50 414.08,99.32 C417.11,76.20 415.49,66.94 407.54,62.02 C402.92,59.17 392.48,58.41 380.00,60.01 C374.77,60.69 365.20,61.46 358.71,61.73 C348.13,62.16 346.40,61.99 341.79,60.00 C338.97,58.79 335.85,56.83 334.86,55.65 C332.21,52.49 325.67,39.66 322.05,30.50 C317.39,18.72 312.42,10.11 307.20,4.75 C302.66,0.09 302.46,0.00 296.35,0.00 C292.92,0.00 289.84,0.46 289.49,1.01 C289.15,1.57 286.99,2.98 284.71,4.15 C282.42,5.31 274.92,10.55 268.03,15.78 C253.49,26.82 243.63,32.00 237.17,32.00 C231.19,32.00 222.66,27.73 211.00,18.89 C205.77,14.93 198.12,9.52 194.00,6.86 C189.88,4.20 185.96,1.57 185.29,1.01 C184.63,0.45 181.42,0.00 178.16,0.00 C172.46,0.00 172.03,0.19 167.16,4.76 C163.15,8.52 160.97,11.92 156.74,21.01 C153.79,27.33 150.15,35.65 148.63,39.50 C145.40,47.73 140.59,54.69 135.41,58.63 C132.02,61.22 130.86,61.49 121.60,61.83 C115.50,62.06 107.23,61.57 100.72,60.60 C85.21,58.30 75.08,58.48 68.81,61.18 C64.47,63.05 63.40,64.08 61.38,68.43 C58.47,74.68 58.23,84.74 60.60,100.72 C61.58,107.27 62.06,115.50 61.83,121.69 C61.48,131.27 61.27,132.10 58.41,135.69 C54.08,141.10 46.26,145.96 33.00,151.46 C15.21,158.84 9.89,161.81 4.75,167.22 C0.12,172.11 0.00,172.38 0.00,178.53 C0.00,182.00 0.35,184.98 0.79,185.17 C1.22,185.35 2.83,187.67 4.37,190.32 C5.91,192.97 10.12,199.05 13.73,203.82 C28.07,222.78 32.00,229.98 32.00,237.32 C32.00,243.56 25.91,255.20 16.48,267.00 C12.30,272.23 7.73,278.52 6.31,281.00 C4.90,283.48 2.90,286.72 1.87,288.21 C0.57,290.10 0.00,292.68 0.00,296.75 C0.00,302.38 0.16,302.73 4.75,307.22 C9.81,312.17 19.52,317.76 29.77,321.63 C38.65,324.98 51.13,331.40 54.83,334.51 C62.15,340.67 63.63,351.77 60.40,376.33 C57.56,397.93 59.58,408.18 67.56,412.69 C73.54,416.08 81.42,416.42 99.32,414.07 C118.24,411.59 126.00,411.53 131.95,413.81 C138.39,416.28 143.72,423.37 149.43,437.09 C159.59,461.44 164.12,468.78 171.50,472.84 Z" fill="rgb(231,237,242)"/>
<path d="M 201.98 385.41 C199.65,387.93 197.02,389.99 196.12,389.98 C190.67,389.93 167.43,379.92 154.74,372.15 C97.94,337.38 68.64,269.69 82.39,205.00 C95.72,142.35 144.27,94.30 206.73,81.95 C219.05,79.51 248.28,78.02 249.36,79.77 C249.75,80.41 248.34,81.09 245.75,81.52 C227.38,84.51 204.11,94.09 186.50,105.90 C176.32,112.74 173.86,114.80 162.17,126.30 C115.77,171.99 103.27,245.47 131.78,305.00 C146.31,335.33 169.82,360.35 198.50,375.97 C201.80,377.77 204.89,379.60 205.36,380.03 C205.83,380.46 204.31,382.88 201.98,385.41 ZM 252.54 276.46 C240.39,279.60 223.10,278.03 210.63,272.66 C205.54,270.48 194.70,262.71 192.07,259.37 C187.75,253.87 190.86,247.00 197.67,247.00 C200.38,247.00 202.23,247.87 205.23,250.59 C210.58,255.43 221.64,260.58 229.81,262.03 C242.28,264.26 256.67,260.37 267.21,251.91 C273.78,246.64 277.70,245.70 281.66,248.47 C284.22,250.27 285.17,254.54 283.71,257.74 C281.15,263.35 264.45,273.39 252.54,276.46 ZM 288.92 209.47 C281.40,215.44 274.00,213.41 274.00,205.37 C274.00,200.70 278.87,195.91 288.00,191.59 C301.39,185.25 320.25,187.37 331.42,196.48 C337.72,201.61 339.26,205.82 336.31,209.80 C333.50,213.58 328.28,213.95 324.37,210.65 C313.41,201.44 299.60,200.98 288.92,209.47 ZM 150.86 210.14 C148.73,211.81 145.99,213.00 144.28,213.00 C140.36,213.00 137.00,209.34 137.00,205.07 C137.00,200.86 141.90,196.17 150.98,191.69 C157.14,188.66 158.03,188.50 168.98,188.51 C179.30,188.53 181.09,188.80 186.11,191.15 C193.54,194.61 201.00,201.75 201.00,205.37 C201.00,209.04 196.91,213.00 193.12,213.00 C191.45,213.00 188.91,211.95 187.30,210.60 C181.29,205.54 175.97,203.55 168.52,203.59 C161.01,203.62 157.49,204.92 150.86,210.14 Z" fill="rgb(231,145,65)"/>
<path d="M 201.98 385.41 C204.31,382.88 205.83,380.46 205.36,380.03 C204.89,379.60 201.80,377.77 198.50,375.97 C169.82,360.35 146.31,335.33 131.78,305.00 C103.27,245.47 115.77,171.99 162.17,126.30 C173.86,114.80 176.32,112.74 186.50,105.90 C204.11,94.09 227.38,84.51 245.75,81.52 C248.34,81.09 249.75,80.41 249.36,79.77 C249.15,79.43 247.87,79.22 245.86,79.10 C251.05,79.17 255.68,79.43 259.12,79.92 C311.41,87.32 355.81,119.41 378.94,166.50 C385.93,180.74 388.82,188.58 392.01,202.00 C399.14,231.95 396.31,267.27 384.44,296.72 C382.59,301.30 380.39,306.03 379.54,307.24 C377.35,310.37 377.56,310.83 381.51,311.57 C382.43,311.74 383.32,311.99 384.03,312.25 C383.19,312.12 382.04,312.13 380.72,312.31 C378.08,312.66 375.94,312.35 374.48,311.39 C371.62,309.52 353.01,307.85 348.70,309.08 C346.95,309.59 343.84,310.00 341.81,310.00 C337.43,310.00 327.04,312.56 325.60,314.00 C325.05,314.55 323.90,315.00 323.05,315.00 C321.40,315.01 310.95,319.97 308.76,321.79 C308.04,322.38 304.87,324.23 301.71,325.89 C298.56,327.55 293.51,331.04 290.49,333.64 C284.27,339.01 273.34,351.75 270.45,357.00 C266.19,364.74 265.93,364.86 255.07,364.26 C246.77,363.81 244.28,364.06 238.41,365.94 C234.61,367.15 230.50,368.79 229.29,369.57 C228.07,370.36 226.32,371.00 225.39,371.00 C221.16,371.00 213.81,376.19 203.45,386.50 C197.07,392.86 193.77,396.53 191.42,400.20 C192.23,398.75 193.05,397.38 193.81,396.17 C195.66,393.23 197.02,390.74 196.83,390.62 C196.76,390.57 195.91,390.27 194.56,389.80 C195.18,389.92 195.70,389.98 196.12,389.98 C197.02,389.99 199.65,387.93 201.98,385.41 ZM 252.54 276.46 C264.45,273.39 281.15,263.35 283.71,257.74 C285.17,254.54 284.22,250.27 281.66,248.47 C277.70,245.70 273.78,246.64 267.21,251.91 C256.67,260.37 242.28,264.26 229.81,262.03 C221.64,260.58 210.58,255.43 205.23,250.59 C202.23,247.87 200.38,247.00 197.67,247.00 C190.86,247.00 187.75,253.87 192.07,259.37 C194.70,262.71 205.54,270.48 210.63,272.66 C223.10,278.03 240.39,279.60 252.54,276.46 ZM 288.92 209.47 C299.60,200.98 313.41,201.44 324.37,210.65 C328.28,213.95 333.50,213.58 336.31,209.80 C339.26,205.82 337.72,201.61 331.42,196.48 C320.25,187.37 301.39,185.25 288.00,191.59 C278.87,195.91 274.00,200.70 274.00,205.37 C274.00,213.41 281.40,215.44 288.92,209.47 ZM 150.86 210.14 C157.49,204.92 161.01,203.62 168.52,203.59 C175.97,203.55 181.29,205.54 187.30,210.60 C188.91,211.95 191.45,213.00 193.12,213.00 C196.91,213.00 201.00,209.04 201.00,205.37 C201.00,201.75 193.54,194.61 186.11,191.15 C181.09,188.80 179.30,188.53 168.98,188.51 C158.03,188.50 157.14,188.66 150.98,191.69 C141.90,196.17 137.00,200.86 137.00,205.07 C137.00,209.34 140.36,213.00 144.28,213.00 C145.99,213.00 148.73,211.81 150.86,210.14 ZM 95.93 307.97 C79.95,276.38 74.91,240.21 82.39,205.00 C74.87,240.39 80.23,276.67 95.93,307.97 ZM 179.84 384.68 C168.74,380.38 158.23,374.81 148.40,368.05 C150.47,369.46 152.59,370.83 154.74,372.15 C161.53,376.31 171.35,381.11 179.84,384.68 ZM 183.59 419.09 C183.94,416.77 184.37,414.93 184.91,413.50 C185.63,411.57 186.87,408.86 188.32,406.00 C185.83,411.25 184.40,414.80 183.59,419.09 ZM 206.73 81.94 C212.01,80.89 219.28,80.10 226.91,79.62 C219.40,80.14 211.69,80.97 206.73,81.95 C202.14,82.86 197.62,83.96 193.18,85.25 C197.62,83.96 202.14,82.85 206.73,81.94 ZM 134.12 117.24 C108.33,139.46 89.85,169.94 82.39,205.00 C89.85,169.93 108.33,139.46 134.12,117.24 ZM 134.12 117.24 C151.02,102.68 171.05,91.67 193.17,85.25 C171.04,91.68 151.01,102.69 134.12,117.24 Z" fill="rgb(252,206,115)"/>
<path d="M 171.50 472.84 C164.12,468.78 159.59,461.44 149.43,437.09 C143.72,423.37 138.39,416.28 131.95,413.81 C126.00,411.53 118.24,411.59 99.32,414.07 C81.42,416.42 73.54,416.08 67.56,412.69 C59.58,408.18 57.56,397.93 60.40,376.33 C63.63,351.77 62.15,340.67 54.83,334.51 C51.13,331.40 38.65,324.98 29.77,321.63 C19.52,317.76 9.81,312.17 4.75,307.22 C0.16,302.73 0.00,302.38 0.00,296.75 C0.00,292.68 0.57,290.10 1.87,288.21 C2.90,286.72 4.90,283.48 6.31,281.00 C7.73,278.52 12.30,272.23 16.48,267.00 C25.91,255.20 32.00,243.56 32.00,237.32 C32.00,229.98 28.07,222.78 13.73,203.82 C10.12,199.05 5.91,192.97 4.37,190.32 C2.83,187.67 1.22,185.35 0.79,185.17 C0.35,184.98 0.00,182.00 0.00,178.53 C0.00,172.38 0.12,172.11 4.75,167.22 C9.89,161.81 15.21,158.84 33.00,151.46 C46.26,145.96 54.08,141.10 58.41,135.69 C61.27,132.10 61.48,131.27 61.83,121.69 C62.06,115.50 61.58,107.27 60.60,100.72 C58.23,84.74 58.47,74.68 61.38,68.43 C63.40,64.08 64.47,63.05 68.81,61.18 C75.08,58.48 85.21,58.30 100.72,60.60 C107.23,61.57 115.50,62.06 121.60,61.83 C130.86,61.49 132.02,61.22 135.41,58.63 C140.59,54.69 145.40,47.73 148.63,39.50 C150.15,35.65 153.79,27.33 156.74,21.01 C160.97,11.92 163.15,8.52 167.16,4.76 C172.03,0.19 172.46,-0.00 178.16,0.00 C181.42,0.00 184.63,0.45 185.29,1.01 C185.96,1.57 189.88,4.20 194.00,6.86 C198.12,9.52 205.77,14.93 211.00,18.89 C222.66,27.73 231.19,32.00 237.17,32.00 C243.63,32.00 253.49,26.82 268.03,15.78 C274.92,10.55 282.42,5.31 284.71,4.15 C286.99,2.98 289.15,1.57 289.49,1.01 C289.84,0.46 292.92,0.00 296.35,0.00 C302.46,0.00 302.66,0.09 307.20,4.75 C312.42,10.11 317.39,18.72 322.05,30.50 C325.67,39.66 332.21,52.49 334.86,55.65 C335.85,56.83 338.97,58.79 341.79,60.00 C346.40,61.99 348.13,62.16 358.71,61.73 C365.20,61.46 374.77,60.69 380.00,60.01 C392.48,58.41 402.92,59.17 407.54,62.02 C415.49,66.94 417.11,76.20 414.08,99.32 C410.51,126.50 411.56,133.17 420.56,140.50 C423.46,142.86 430.04,146.46 436.05,148.95 C454.98,156.82 464.37,161.70 468.19,165.67 C477.80,175.65 476.07,183.26 458.98,206.16 C437.55,234.89 437.47,239.82 457.99,266.99 C469.59,282.34 474.00,290.51 474.00,296.62 C474.00,307.23 467.84,312.15 440.37,323.53 C435.53,325.53 429.63,328.31 427.25,329.70 L 422.94 332.23 L 416.22 327.77 C412.52,325.32 408.15,322.60 406.50,321.73 C397.90,317.19 390.43,314.00 388.40,314.00 C387.14,314.00 385.87,313.60 385.57,313.11 C385.27,312.63 383.44,311.93 381.51,311.57 C377.56,310.83 377.35,310.37 379.54,307.24 C380.39,306.03 382.59,301.30 384.44,296.72 C396.31,267.27 399.14,231.95 392.01,202.00 C388.82,188.58 385.93,180.74 378.94,166.50 C355.81,119.41 311.41,87.32 259.12,79.92 C247.08,78.21 220.30,79.25 206.73,81.94 C144.22,94.35 95.72,142.35 82.39,205.00 C71.61,255.71 86.82,308.41 123.23,346.55 C141.32,365.49 162.87,379.25 187.00,387.25 C192.23,388.99 196.65,390.50 196.83,390.62 C197.02,390.74 195.66,393.23 193.81,396.17 C190.59,401.27 186.49,409.25 184.91,413.50 C183.27,417.88 182.54,426.18 182.59,440.00 C182.64,455.38 183.64,461.78 186.41,464.55 C188.79,466.94 188.07,471.17 185.00,472.71 C181.93,474.26 174.21,474.33 171.50,472.84 Z" fill="rgb(253,237,140)"/>
</g>
</svg>